<svg id="Layer_4" data-name="Layer 4" xmlns="http://www.w3.org/2000/svg" viewBox="0 0 1098.78 256.57"><defs><style>.cls-1,.cls-3{fill:#fff;}.cls-2{fill:#cb2229;}.cls-3{stroke:#cb2229;stroke-miterlimit:10;stroke-width:3px;}</style></defs><path class="cls-1" d="M1048,227.88a106.93,106.93,0,0,0-21.68-36.47,94.33,94.33,0,0,0-34-23.65q-19.87-8.2-44.51-8.21H894.46v34.16h51.67q17.4,0,30.88,5.59a63.43,63.43,0,0,1,23,16.09,70.12,70.12,0,0,1,14.46,25.46,107.43,107.43,0,0,1,4.92,33.67,108.94,108.94,0,0,1-4.92,33.84,69.59,69.59,0,0,1-14.29,25.46,62.45,62.45,0,0,1-23,15.93q-13.63,5.6-31,5.58H894.46V389.5h53.31q24.65,0,44.68-8.21a93.59,93.59,0,0,0,34-23.49A106.3,106.3,0,0,0,1048,321.33q7.56-21.18,7.56-46.81T1048,227.88Z" transform="translate(-160 -146.47)"/><path class="cls-1" d="M698.76,321.17a106.89,106.89,0,0,0,21.68,36.46,94.24,94.24,0,0,0,34,23.66q19.88,8.2,44.51,8.21h53.31V355.33H800.59q-17.4,0-30.88-5.58a63.46,63.46,0,0,1-23-16.1,70,70,0,0,1-14.46-25.46,107.34,107.34,0,0,1-4.92-33.67,108.92,108.92,0,0,1,4.92-33.83,69.51,69.51,0,0,1,14.29-25.46,62.45,62.45,0,0,1,23-15.93q13.63-5.6,31-5.59h51.67V159.55H799q-24.65,0-44.68,8.21a93.35,93.35,0,0,0-34,23.49,106.34,106.34,0,0,0-21.51,36.46q-7.56,21.19-7.56,46.81T698.76,321.17Z" transform="translate(-160 -146.47)"/><path class="cls-1" d="M1105.27,321.17A107,107,0,0,0,1127,357.63a94.27,94.27,0,0,0,34,23.66q19.88,8.2,44.51,8.21h53.31V355.33h-51.67q-17.41,0-30.88-5.58a63.37,63.37,0,0,1-23-16.1,70,70,0,0,1-14.46-25.46,107.33,107.33,0,0,1-4.93-33.67,108.91,108.91,0,0,1,4.93-33.83,69.51,69.51,0,0,1,14.29-25.46,62.36,62.36,0,0,1,23-15.93q13.64-5.6,31-5.59h51.67V159.55h-53.31q-24.65,0-44.68,8.21a93.26,93.26,0,0,0-34,23.49,106.37,106.37,0,0,0-21.52,36.46q-7.55,21.19-7.55,46.81T1105.27,321.17Z" transform="translate(-160 -146.47)"/><path class="cls-1" d="M509.11,201l-72.79,188h36s52.86-139.14,52.88-139.21C522.85,243,511.46,208.22,509.11,201Z" transform="translate(-160 -146.47)"/><polygon class="cls-1" points="400.98 13.53 367.56 13.53 455.58 242.58 489 242.58 400.98 13.53"/><circle class="cls-2" cx="117.06" cy="128.28" r="117.06"/><path class="cls-3" d="M207,290.92S368.74,146.3,370.9,148h0c2.46,1.91-77.33,108.56-77.33,108.56l48.87,2s-164.13,144.72-166.35,143h0c-2.55-2,77.49-108.72,77.49-108.72Z" transform="translate(-160 -146.47)"/></svg>